<svg id="Layer_1" data-name="Layer 1" xmlns="http://www.w3.org/2000/svg" xmlns:xlink="http://www.w3.org/1999/xlink" viewBox="0 0 1854.2 1979.56"><defs><style>.cls-1{fill:url(#linear-gradient);}.cls-2{fill:url(#linear-gradient-2);}.cls-3{fill:url(#linear-gradient-3);}</style><linearGradient id="linear-gradient" x1="72.9" y1="1099.95" x2="1438.12" y2="1099.95" gradientUnits="userSpaceOnUse"><stop offset="0.5" stop-color="#273585"/><stop offset="1" stop-color="#612579"/></linearGradient><linearGradient id="linear-gradient-2" x1="769.19" y1="493.58" x2="1927.1" y2="493.58" gradientUnits="userSpaceOnUse"><stop offset="0.3" stop-color="#273585"/><stop offset="1" stop-color="#612579"/></linearGradient><linearGradient id="linear-gradient-3" x1="340.98" y1="883.41" x2="1869.25" y2="883.41" gradientUnits="userSpaceOnUse"><stop offset="0.4" stop-color="#273585"/><stop offset="1" stop-color="#612579"/></linearGradient></defs><path class="cls-1" d="M1624.81,1691.84c-34.74,127.49-148.53,230.33-245.6,297.94,34.15-44.23,62-94.72,77.6-151.76,87.37-320.64-263.31-655.67-353.72-742.36C909.4,909.93,649.25,795.23,408.39,680.41c-189-90.22-324.85-147.16-334.93-248.24-2.93-30.33,6.17-56.26,14.19-73.19,13.59-15.85,28.56-32.08,45-48.39A821.65,821.65,0,0,1,256,210.12c-8.74,18.4-17.89,45.14-14.49,75.87,4.17,37.64,27.58,101.68,334.93,248.23C777.07,629.92,848,662.11,979.51,738.43c152.75,88.64,292.06,205,412.1,336.24,118.09,129.14,227.51,285.38,245.24,464.35C1641.92,1590.22,1638.33,1642.13,1624.81,1691.84Z" transform="translate(-72.9 -10.22)"/><path class="cls-2" d="M1927.1,976.94C1638.75,158.66,769.19,18.84,769.19,18.84c24.37-3.13,46.53-5.26,65.84-6.62,11.34-.8,28-1.84,48.74-2,0,0,34.8-.26,74.73,3.55C1463.26,61.9,1879.28,470,1927.1,976.94Z" transform="translate(-72.9 -10.22)"/><path class="cls-3" d="M1869.23,1256.66c0,10.08-.29,20.25-.88,30.23-.59,10.28-1.37,20.45-2.55,30.53a559,559,0,0,1-18.59,93.25c-2.93,10.66-6.26,21.23-9.88,31.6-3.72,10.76-7.63,21.43-11.84,31.9-4.4,10.86-9,21.52-13.89,32.19-5.09,10.86-10.37,21.72-15.95,32.39-5.77,11-11.74,21.82-18,32.58-6.46,11.15-13.21,22.11-20.16,32.88-7.14,11.25-14.68,22.3-22.31,33.16q-11.9,16.89-24.56,33.37c-8.8,11.35-17.71,22.6-26.91,33.56-.09.2-.29.39-.39.59C2091.93,784.65,690.77,478.1,350.76,166.46L341,157.85l.29-.2a5.72,5.72,0,0,0,1.27-.68c9.1-5.58,56.16-33.56,105.67-53,13.21-6.66,27-13.31,41.49-19.77,17.73-8,35.94-14.92,53.94-22.24a67.93,67.93,0,0,0-16.73,18.35c-1.31,2.11-2.54,4.45-2.41,6.93.27,5.24,6,8.13,10.94,10,458.22,170.09,1174.09,485,1314.7,1014.71,4.88,18.41,8.91,37,11.95,55.83,1.56,9.79,2.93,19.57,4,29.36s1.86,19.76,2.35,29.65S1869.33,1246.68,1869.23,1256.66Z" transform="translate(-72.9 -10.22)"/></svg>